<?xml version="1.0" encoding="iso-8859-1"?>
<!-- Generator: Adobe Illustrator 19.0.0, SVG Export Plug-In . SVG Version: 6.00 Build 0)  -->
<svg version="1.1" id="Capa_1" xmlns="http://www.w3.org/2000/svg" xmlns:xlink="http://www.w3.org/1999/xlink" x="0px" y="0px"
	 viewBox="0 0 512 512" style="enable-background:new 0 0 512 512;" xml:space="preserve">
<g>
	<g>
		<path d="M476.909,35.147C454.244,12.482,424.11,0,392.056,0c-32.053,0-62.188,12.482-84.852,35.146L35.091,307.148
			c-46.788,46.788-46.788,122.917,0,169.705C57.756,499.518,87.89,512,119.944,512c32.053,0,62.188-12.482,84.852-35.146
			L476.91,204.852C523.697,158.065,523.697,81.935,476.909,35.147z M109.352,381.408c-5.858,5.858-15.355,5.858-21.213,0
			c-5.858-5.858-5.858-15.355,0-21.213c5.858-5.858,15.355-5.858,21.213,0C115.209,366.053,115.209,375.55,109.352,381.408z
			 M151.778,423.835c-5.858,5.858-15.355,5.858-21.213,0c-5.858-5.858-5.858-15.355,0-21.213c5.858-5.858,15.355-5.858,21.213,0
			C157.636,408.479,157.636,417.977,151.778,423.835z M151.778,338.982c-5.858,5.858-15.355,5.858-21.213,0
			c-5.858-5.858-5.858-15.355,0-21.213c5.858-5.858,15.355-5.858,21.213,0C157.636,323.626,157.636,333.124,151.778,338.982z
			 M194.204,381.408c-5.858,5.858-15.355,5.858-21.213,0c-5.858-5.858-5.858-15.355,0-21.213c5.858-5.858,15.355-5.858,21.213,0
			C200.062,366.053,200.062,375.55,194.204,381.408z M339.009,151.805c-5.858,5.858-15.355,5.858-21.213,0
			c-5.885-5.886-5.885-15.383-0.027-21.241c5.858-5.858,15.355-5.858,21.213,0C344.867,136.45,344.867,145.948,339.009,151.805z
			 M381.435,194.232c-5.858,5.858-15.355,5.858-21.213,0c-5.885-5.886-5.885-15.383-0.027-21.241c5.858-5.858,15.355-5.858,21.213,0
			C387.293,178.876,387.293,188.374,381.435,194.232z M381.435,109.379c-5.858,5.858-15.355,5.858-21.213,0
			c-5.885-5.886-5.885-15.383-0.027-21.241c5.858-5.858,15.355-5.858,21.213,0C387.293,94.024,387.293,103.521,381.435,109.379z
			 M423.862,151.805c-5.858,5.858-15.355,5.858-21.213,0c-5.885-5.886-5.885-15.383-0.027-21.241c5.858-5.858,15.355-5.858,21.213,0
			C429.72,136.45,429.72,145.948,423.862,151.805z"/>
	</g>
</g>
<g>
</g>
<g>
</g>
<g>
</g>
<g>
</g>
<g>
</g>
<g>
</g>
<g>
</g>
<g>
</g>
<g>
</g>
<g>
</g>
<g>
</g>
<g>
</g>
<g>
</g>
<g>
</g>
<g>
</g>
</svg>
