<?xml version="1.0" encoding="iso-8859-1"?>
<!-- Generator: Adobe Illustrator 19.0.0, SVG Export Plug-In . SVG Version: 6.00 Build 0)  -->
<svg version="1.1" id="Capa_1" xmlns="http://www.w3.org/2000/svg" xmlns:xlink="http://www.w3.org/1999/xlink" x="0px" y="0px"
	 viewBox="0 0 512 512" style="enable-background:new 0 0 512 512;" xml:space="preserve">
<g>
	<g>
		<path d="M491.608,396.394c-5.857-5.857-15.355-5.858-21.213,0l-21.212,21.213c-2.833,2.833-6.601,4.394-10.607,4.394H343.42
			c1.665-4.695,2.58-9.742,2.58-15v-90c0-15.441-7.649-30.145-19.968-38.394L269.368,240H361c24.813,0,45-20.187,45-45
			s-20.187-45-45-45h-47.57c0.009-0.025,0.016-0.05,0.025-0.075c3.525-9.947,3.337-20.504-0.05-29.991
			C347.671,121.41,376,93.931,376,60c0-33.084-26.916-60-60-60s-60,26.916-60,60c0,10.925,2.949,21.167,8.072,30H181
			c-8.913,0-17.544,2.614-24.961,7.558l-89.997,59.998c-20.691,13.787-26.28,41.7-12.48,62.41
			c13.836,20.737,41.816,26.218,62.399,12.476L194.624,180h3.561c-25.447,50.893-38.596,78.29-75.046,152H61
			c-24.813,0-45,20.187-45,45s20.187,45,45,45h90c17.157,0,32.581-9.531,40.282-24.933l37.032-74.89L256,340.996V407
			c0,5.258,0.915,10.305,2.58,15H211c-8.284,0-15,6.716-15,15s6.716,15,15,15h17.58c-1.665,4.695-2.58,9.742-2.58,15
			c0,24.813,20.187,45,45,45s45-20.187,45-45c0-5.258-0.915-10.405-2.58-15.1h65.161c-1.665,4.695-2.58,9.842-2.58,15.1
			c0,24.813,20.187,45,45,45s45-20.187,45-45c0-7.536-1.871-14.641-5.16-20.888c3.451-1.972,6.667-4.406,9.554-7.292l21.213-21.213
			C497.465,411.749,497.465,402.252,491.608,396.394z M361,180c8.271,0,15,6.729,15,15s-6.729,15-15,15h-77.185l15-30H361z M316,30
			c16.542,0,30,13.458,30,30s-13.458,30-30,30s-30-13.458-30-30S299.458,30,316,30z M164.419,383.71
			C161.862,388.823,156.72,392,151,392H61c-8.271,0-15-6.729-15-15s6.729-15,15-15h71.455c5.706,0,10.917-3.237,13.446-8.351
			l32.816-66.361c4.128,4.326,5.826,5.138,24.548,17.863L164.419,383.71z M271,482c-8.271,0-15-6.729-15-15s6.729-15,15-15
			s15,6.729,15,15S279.271,482,271,482z M316,407c0,8.271-6.729,15-15,15s-15-6.729-15-15v-73.945c0-4.968-2.459-9.613-6.568-12.405
			c-8.073-5.487-71.707-48.741-76.641-52.094c-0.036-0.024-0.072-0.049-0.108-0.073c-5.264-3.512-7.74-10.746-6.245-17.03
			l39.463-79.804c4.863-9.845-2.25-21.649-13.446-21.649h-32.373c-2.961,0-5.856,0.876-8.32,2.519l-82.45,54.967
			c-6.888,4.598-16.208,2.705-20.79-4.163c-4.594-6.894-2.744-16.205,4.158-20.803l90-60c2.473-1.649,5.35-2.52,8.32-2.52h88.87
			c13.222,0,19.381,12.305,14.445,21.918l-48.059,96.104c-2.789,5.578-1.797,12.154,2.175,16.645
			c1.757,1.99-2.769-1.33,70.764,48.769c0.042,0.028,0.083,0.056,0.125,0.084c3.933,2.622,6.68,8.165,6.68,13.48V407z M421,482
			c-8.271,0-15-6.729-15-15s6.729-15,15-15s15,6.729,15,15S429.271,482,421,482z"/>
	</g>
</g>
<g>
</g>
<g>
</g>
<g>
</g>
<g>
</g>
<g>
</g>
<g>
</g>
<g>
</g>
<g>
</g>
<g>
</g>
<g>
</g>
<g>
</g>
<g>
</g>
<g>
</g>
<g>
</g>
<g>
</g>
</svg>
